<svg id="Layer_1" data-name="Layer 1" xmlns="http://www.w3.org/2000/svg" viewBox="0 0 500 196.48"><defs><style>.cls-1{fill:#fff;}</style></defs><path class="cls-1" d="M382.91,146.6h5L308.09,5.84l-29,45.25L253.48,5.84l-27.2,42.53L202.17,5.84l-90,140.76h5.11L202,14.18l21.7,38.29L163.43,146.6h5.13l57.49-89.89,23.25,41L218,146.6h5.12L251.72,102,277,146.6H282L254.33,97.86,278.9,59.44l49.41,87.16h4.95L281.53,55.33l26.33-41.15Zm-131-53-23.25-41,24.57-38.42,23.26,41Z"/><path class="cls-1" d="M11.52,174.9h1l6.07,15.38h-1l-1.94-4.94H8.31l-2,4.94h-1Zm-2.91,9.63h6.77l-3.3-8.71h0Z"/><path class="cls-1" d="M45.75,182.69H37.91v7.59H37V174.9h9.65v.81h-8.7v6.17h7.84Z"/><path class="cls-1" d="M65.27,190.28V174.9h6.42q4.88,0,4.87,4a4,4,0,0,1-.88,2.62,3.85,3.85,0,0,1-2.42,1.32v0a3,3,0,0,1,2.67,1.78,9.61,9.61,0,0,1,.37,3.08,4.81,4.81,0,0,0,.47,2.57h-1a4.24,4.24,0,0,1-.35-1.75c0-.6,0-1.21,0-1.83a3.6,3.6,0,0,0-.89-2.62,4,4,0,0,0-2.77-.8H66.22v7Zm1-7.82h5.47a4.25,4.25,0,0,0,2.8-.84,3.26,3.26,0,0,0,1.12-2.7,2.83,2.83,0,0,0-1.18-2.47,4.63,4.63,0,0,0-2.74-.74H66.22Z"/><path class="cls-1" d="M96.08,190.28V174.9H97v15.38Z"/><path class="cls-1" d="M129.9,179.48h-1a4.51,4.51,0,0,0-1.78-3,5.51,5.51,0,0,0-3.45-1.12,5.8,5.8,0,0,0-4.7,2.13,8.6,8.6,0,0,0,0,10.21,5.8,5.8,0,0,0,4.7,2.13,5.07,5.07,0,0,0,3.81-1.7,5.88,5.88,0,0,0,1.68-3.83h.95a7.13,7.13,0,0,1-2.08,4.56,6,6,0,0,1-4.36,1.79,6.78,6.78,0,0,1-5.39-2.34,9.37,9.37,0,0,1,0-11.42,6.75,6.75,0,0,1,5.39-2.35,5.87,5.87,0,0,1,5.12,2.39A5.5,5.5,0,0,1,129.9,179.48Z"/><path class="cls-1" d="M153.94,174.9h1l6.08,15.38h-1l-1.94-4.94h-7.37l-2,4.94h-1ZM151,184.53h6.77l-3.3-8.71h0Z"/><path class="cls-1" d="M179.38,190.28V174.9h1.19L190.33,189V174.9h.94v15.38h-1.12l-9.82-14.22v14.22Z"/><path class="cls-1" d="M234.45,190.28V174.9h1.35l6,14.32h.05l5.94-14.32h1.36v15.38h-.95V176.06l-5.9,14.22h-.95l-6-14.22v14.22Z"/><path class="cls-1" d="M273.68,174.9h1l6.08,15.38h-1l-1.94-4.94h-7.36l-2,4.94h-1Zm-2.91,9.63h6.76l-3.29-8.71h-.05Z"/><path class="cls-1" d="M299.12,190.28V174.9h6.42c3.24,0,4.87,1.32,4.87,4a4,4,0,0,1-.89,2.62,3.8,3.8,0,0,1-2.41,1.32v0a3,3,0,0,1,2.67,1.78,9.91,9.91,0,0,1,.37,3.08,4.81,4.81,0,0,0,.47,2.57h-1.05a4.24,4.24,0,0,1-.35-1.75c0-.6,0-1.21,0-1.83a3.64,3.64,0,0,0-.89-2.62,4,4,0,0,0-2.77-.8h-5.47v7Zm.95-7.82h5.47a4.27,4.27,0,0,0,2.8-.84,3.26,3.26,0,0,0,1.12-2.7,2.83,2.83,0,0,0-1.19-2.47,4.62,4.62,0,0,0-2.73-.74h-5.47Z"/><path class="cls-1" d="M329.92,190.28V174.9h1.36l6,14.32h0l5.94-14.32h1.36v15.38h-.95V176.06l-5.9,14.22h-1l-6-14.22v14.22Z"/><path class="cls-1" d="M369.15,174.9h1l6.07,15.38h-1l-1.94-4.94h-7.37l-2,4.94h-1Zm-2.91,9.63H373l-3.3-8.71h0Z"/><path class="cls-1" d="M394.6,190.28V174.9h.94v14.56h8.73v.82Z"/><path class="cls-1" d="M427.17,174.9h1l6.08,15.38h-1l-1.94-4.94H424l-2,4.94h-1Zm-2.91,9.63H431l-3.29-8.71h0Z"/><path class="cls-1" d="M452.61,190.28V174.9h5c2.54,0,4.42.79,5.62,2.36a8.53,8.53,0,0,1,1.49,5.3,8.27,8.27,0,0,1-1.72,5.5,6.76,6.76,0,0,1-5.43,2.22Zm.95-14.57v13.75h4.14a6,6,0,0,0,4.13-1.44,7,7,0,0,0,2-5.46q0-6.84-6.31-6.85Z"/><path class="cls-1" d="M485.16,189.46h9.5v.82H484.21V174.9h10.34v.81h-9.39v6.17H494v.81h-8.83Z"/></svg>