<svg id="Layer_1" data-name="Layer 1" xmlns="http://www.w3.org/2000/svg" viewBox="0 0 500 500"><defs><style>.cls-1{fill:#fff;}</style></defs><path class="cls-1" d="M367.54,292.77h4.38L301.37,168.29l-25.61,40-22.68-40L229,205.89l-21.32-37.6L128.08,292.77h4.52l74.91-117.1,19.19,33.86-53.25,83.24H178l50.84-79.5,20.56,36.28-27.65,43.22h4.54l25.25-39.48,22.36,39.48h4.39l-24.44-43.11,21.73-34,43.69,77.08h4.38l-45.75-80.72,23.28-36.38ZM251.71,245.91l-20.56-36.27,21.73-34,20.56,36.27Z"/><path class="cls-1" d="M39.11,317.79H40l5.37,13.6H44.5L42.78,327H36.27l-1.74,4.36h-.89Zm-2.57,8.51h6l-2.92-7.69h0Z"/><path class="cls-1" d="M69.38,324.68H62.44v6.71h-.83v-13.6h8.53v.72h-7.7V324h6.94Z"/><path class="cls-1" d="M86.64,331.39v-13.6h5.68q4.31,0,4.3,3.5a3.52,3.52,0,0,1-.78,2.32,3.37,3.37,0,0,1-2.13,1.17v0a2.64,2.64,0,0,1,2.36,1.58,8.66,8.66,0,0,1,.32,2.72,4.38,4.38,0,0,0,.42,2.27h-.93a3.72,3.72,0,0,1-.31-1.54c0-.54,0-1.08,0-1.62a3.23,3.23,0,0,0-.79-2.32,3.53,3.53,0,0,0-2.45-.71H87.48v6.19Zm.84-6.92h4.84a3.72,3.72,0,0,0,2.47-.74,2.88,2.88,0,0,0,1-2.38,2.51,2.51,0,0,0-1-2.19,4.13,4.13,0,0,0-2.42-.65H87.48Z"/><path class="cls-1" d="M113.88,331.39v-13.6h.84v13.6Z"/><path class="cls-1" d="M143.79,321.85H143a4,4,0,0,0-1.57-2.67,4.92,4.92,0,0,0-3.06-1,5.14,5.14,0,0,0-4.15,1.88,7.63,7.63,0,0,0,0,9,5.12,5.12,0,0,0,4.15,1.89,4.5,4.5,0,0,0,3.38-1.51,5.16,5.16,0,0,0,1.48-3.39H144a6.24,6.24,0,0,1-1.84,4,5.29,5.29,0,0,1-3.86,1.59,6,6,0,0,1-4.76-2.07,8.31,8.31,0,0,1,0-10.1,6,6,0,0,1,4.76-2.08,5.21,5.21,0,0,1,4.54,2.12A4.8,4.8,0,0,1,143.79,321.85Z"/><path class="cls-1" d="M165.05,317.79H166l5.37,13.6h-.9L168.73,327h-6.52l-1.73,4.36h-.89Zm-2.57,8.51h6l-2.91-7.69h0Z"/><path class="cls-1" d="M187.55,331.39v-13.6h1l8.63,12.48V317.79h.84v13.6h-1l-8.68-12.57v12.57Z"/><path class="cls-1" d="M236.25,331.39v-13.6h1.2l5.31,12.67h0l5.26-12.67h1.2v13.6h-.84V318.82l-5.22,12.57h-.84l-5.28-12.57v12.57Z"/><path class="cls-1" d="M270.94,317.79h.91l5.37,13.6h-.89L274.61,327H268.1l-1.73,4.36h-.9Zm-2.58,8.51h6l-2.92-7.69h0Z"/><path class="cls-1" d="M293.44,331.39v-13.6h5.67q4.31,0,4.31,3.5a3.52,3.52,0,0,1-.78,2.32,3.37,3.37,0,0,1-2.14,1.17v0a2.65,2.65,0,0,1,2.37,1.58,8.66,8.66,0,0,1,.32,2.72,4.18,4.18,0,0,0,.42,2.27h-.93a3.72,3.72,0,0,1-.31-1.54c0-.54,0-1.08,0-1.62a3.18,3.18,0,0,0-.79-2.32,3.52,3.52,0,0,0-2.45-.71h-4.83v6.19Zm.84-6.92h4.83a3.75,3.75,0,0,0,2.48-.74,2.88,2.88,0,0,0,1-2.38,2.5,2.5,0,0,0-1.05-2.19,4.1,4.1,0,0,0-2.42-.65h-4.83Z"/><path class="cls-1" d="M320.68,331.39v-13.6h1.2l5.31,12.67h0l5.26-12.67h1.2v13.6h-.84V318.82l-5.22,12.57h-.84l-5.27-12.57v12.57Z"/><path class="cls-1" d="M355.37,317.79h.91l5.38,13.6h-.9L359.05,327h-6.52l-1.73,4.36h-.9Zm-2.57,8.51h6l-2.92-7.69h0Z"/><path class="cls-1" d="M377.87,331.39v-13.6h.84v12.87h7.71v.73Z"/><path class="cls-1" d="M406.67,317.79h.92l5.37,13.6h-.89L410.35,327h-6.51l-1.74,4.36h-.89Zm-2.57,8.51h6l-2.91-7.69h0Z"/><path class="cls-1" d="M429.17,331.39v-13.6h4.46a5.86,5.86,0,0,1,5,2.09,7.57,7.57,0,0,1,1.32,4.69,7.29,7.29,0,0,1-1.53,4.86,5.94,5.94,0,0,1-4.8,2Zm.84-12.88v12.15h3.66a5.28,5.28,0,0,0,3.66-1.27,6.2,6.2,0,0,0,1.75-4.82q0-6.06-5.58-6.06Z"/><path class="cls-1" d="M458,330.66h8.4v.73h-9.24v-13.6h9.15v.72H458V324h7.81v.72H458Z"/></svg>